<svg id="Capa_1" xmlns="http://www.w3.org/2000/svg" width="195.1" height="57" viewBox="0 0 195.1 57"><style>.st0{stroke:#fff;stroke-width:.2;stroke-miterlimit:10}.st0,.st1{fill:#fff}.st2{fill:url(#SVGID_1_)}.st3{fill:url(#SVGID_2_)}.st4{fill:url(#SVGID_3_)}.st5{fill:url(#SVGID_4_)}.st6{opacity:.2}.st6,.st7,.st8{enable-background:new}.st7{opacity:.12}.st8{opacity:.25;fill:#fff}</style><path class="st0" d="M72.7 16c0 1-.2 1.8-.9 2.4-.7.7-1.6 1.1-2.7 1.1s-1.9-.4-2.7-1.1c-.7-.7-1.1-1.6-1.1-2.7s.4-1.9 1.1-2.7c.7-.7 1.6-1.1 2.7-1.1.5 0 1 .1 1.5.4.5.2.9.5 1.1.9l-.6.6c-.5-.6-1.1-.9-1.9-.9-.7 0-1.5.2-1.9.9-.5.6-.9 1.2-.9 2.1s.2 1.6.9 2.1c.6.5 1.2.9 1.9.9.9 0 1.5-.2 2.1-.9.4-.4.6-.9.6-1.5h-2.7v-.9h3.5v.4zm5.6-3H75v2.3h3v.9h-3v2.3h3.3v1H74v-7.3h4.3v.8zm4 6.4h-1V13h-2.1v-.9h5.1v.9h-2.1v6.4zm5.6 0v-7.3h1v7.3h-1zm5.1 0h-1V13h-2v-.9h5v.9h-2.1c.1 0 .1 6.4.1 6.4zm11.6-.9c-.7.7-1.6 1.1-2.7 1.1s-1.9-.4-2.7-1.1c-.7-.7-1.1-1.6-1.1-2.7s.4-1.9 1.1-2.7c.7-.7 1.6-1.1 2.7-1.1s1.9.4 2.7 1.1c.7.7 1.1 1.6 1.1 2.7s-.4 1.9-1.1 2.7zm-4.6-.6c.5.6 1.2.9 1.9.9s1.5-.2 1.9-.9c.5-.6.9-1.2.9-2.1 0-.9-.2-1.6-.9-2.1-.5-.6-1.2-.9-1.9-.9s-1.5.2-1.9.9-.9 1.2-.9 2.1c0 .9.3 1.6.9 2.1zm7 1.5v-7.3h1.1l3.5 5.7V12h1v7.3h-1l-3.8-6v6h-.8z"/><path class="st1" d="M97.9 30.1c-2.9 0-5.2 2.2-5.2 5.2 0 2.9 2.3 5.2 5.2 5.2 2.9 0 5.2-2.2 5.2-5.2 0-3.1-2.3-5.2-5.2-5.2zm0 8.3c-1.6 0-2.9-1.3-2.9-3.2 0-1.8 1.3-3.2 2.9-3.2 1.6 0 2.9 1.2 2.9 3.2 0 1.9-1.3 3.2-2.9 3.2zm-11.3-8.3c-2.9 0-5.2 2.2-5.2 5.2 0 2.9 2.3 5.2 5.2 5.2s5.2-2.2 5.2-5.2c0-3.1-2.3-5.2-5.2-5.2zm0 8.3c-1.6 0-2.9-1.3-2.9-3.2 0-1.8 1.3-3.2 2.9-3.2 1.6 0 2.9 1.2 2.9 3.2 0 1.9-1.3 3.2-2.9 3.2zm-13.5-6.7v2.2h5.2c-.1 1.2-.6 2.2-1.2 2.8-.7.7-1.9 1.6-4 1.6-3.3 0-5.7-2.6-5.7-5.8s2.6-5.8 5.7-5.8c1.7 0 3 .7 4 1.6l1.6-1.6c-1.3-1.2-3-2.2-5.5-2.2-4.4 0-8.1 3.6-8.1 8s3.8 8 8.1 8c2.4 0 4.1-.7 5.6-2.3 1.5-1.5 1.9-3.5 1.9-5.1 0-.5 0-1-.1-1.3l-7.5-.1zm55.2 1.7c-.5-1.2-1.7-3.3-4.4-3.3s-4.9 2.1-4.9 5.2c0 2.9 2.2 5.2 5.1 5.2 2.3 0 3.8-1.5 4.3-2.3l-1.7-1.2c-.6.9-1.3 1.5-2.6 1.5s-1.9-.5-2.6-1.6l6.9-2.9-.1-.6zm-7.1 1.7c0-1.9 1.6-3 2.7-3 .9 0 1.7.5 1.9 1.1l-4.6 1.9zm-5.7 5h2.3V24.9h-2.3v15.2zm-3.6-8.9c-.6-.6-1.6-1.2-2.8-1.2-2.6 0-5 2.3-5 5.2 0 2.9 2.3 5.1 5 5.1 1.2 0 2.2-.6 2.7-1.2h.1v.7c0 1.9-1.1 3-2.8 3-1.3 0-2.3-1-2.6-1.8l-1.9.9c.6 1.3 2.1 3 4.6 3 2.7 0 4.9-1.6 4.9-5.3v-9.2h-2.2v.8zm-2.7 7.2c-1.6 0-2.9-1.3-2.9-3.2 0-1.8 1.3-3.2 2.9-3.2 1.6 0 2.8 1.3 2.8 3.2 0 1.9-1.2 3.2-2.8 3.2zm29.7-13.5h-5.5v15.2h2.3v-5.7h3.2c2.6 0 5-1.8 5-4.7s-2.5-4.8-5-4.8zm.1 7.3h-3.3V27h3.3c1.7 0 2.7 1.5 2.7 2.6-.2 1.1-1.1 2.6-2.7 2.6zm14-2.2c-1.7 0-3.4.7-4 2.3l2.1.9c.5-.9 1.2-1.1 2.1-1.1 1.2 0 2.3.7 2.4 1.9v.1c-.4-.2-1.3-.6-2.3-.6-2.2 0-4.4 1.2-4.4 3.4 0 2.1 1.8 3.4 3.8 3.4 1.6 0 2.3-.7 2.9-1.5h.1V40h2.2v-5.8c-.3-2.6-2.4-4.2-4.9-4.2zm-.3 8.4c-.7 0-1.8-.4-1.8-1.3 0-1.2 1.3-1.6 2.4-1.6 1 0 1.5.2 2.1.5-.3 1.4-1.5 2.4-2.7 2.4zm12.8-8l-2.6 6.6h-.1l-2.7-6.6h-2.4l4 9.2-2.3 5.1h2.3l6.2-14.3h-2.4zm-20.4 9.7h2.3V24.9h-2.3v15.2z"/><linearGradient id="SVGID_1_" gradientUnits="userSpaceOnUse" x1="41.596" y1="155.805" x2="21.199" y2="135.408" gradientTransform="matrix(1 0 0 -1 0 170)"><stop offset="0" stop-color="#00a0ff"/><stop offset=".007" stop-color="#00a1ff"/><stop offset=".26" stop-color="#00beff"/><stop offset=".512" stop-color="#00d2ff"/><stop offset=".76" stop-color="#00dfff"/><stop offset="1" stop-color="#00e3ff"/></linearGradient><path class="st2" d="M27.8 12.8c-.4.4-.6 1-.6 1.7v26.9c0 .7.2 1.3.6 1.7l.1.1L43 28.1v-.2L27.8 12.8z"/><linearGradient id="SVGID_2_" gradientUnits="userSpaceOnUse" x1="56.258" y1="141.986" x2="26.85" y2="141.986" gradientTransform="matrix(1 0 0 -1 0 170)"><stop offset="0" stop-color="#ffe000"/><stop offset=".409" stop-color="#ffbd00"/><stop offset=".775" stop-color="orange"/><stop offset="1" stop-color="#ff9c00"/></linearGradient><path class="st3" d="M48 33.2l-5-5v-.3l5-5 .1.1 6 3.4c1.7 1 1.7 2.6 0 3.5L48 33.2z"/><linearGradient id="SVGID_3_" gradientUnits="userSpaceOnUse" x1="45.297" y1="139.27" x2="17.637" y2="111.611" gradientTransform="matrix(1 0 0 -1 0 170)"><stop offset="0" stop-color="#ff3a44"/><stop offset="1" stop-color="#c31162"/></linearGradient><path class="st4" d="M48.1 33.1L43 28 27.8 43.1c.6.6 1.5.6 2.6.1l17.7-10.1"/><linearGradient id="SVGID_4_" gradientUnits="userSpaceOnUse" x1="23.962" y1="166.097" x2="36.314" y2="153.746" gradientTransform="matrix(1 0 0 -1 0 170)"><stop offset="0" stop-color="#32a071"/><stop offset=".069" stop-color="#2da771"/><stop offset=".476" stop-color="#15cf74"/><stop offset=".801" stop-color="#06e775"/><stop offset="1" stop-color="#00f076"/></linearGradient><path class="st5" d="M48.1 22.8l-17.8-10c-1.1-.6-1.9-.5-2.6.1L43 28l5.1-5.2z"/><path class="st6" d="M48 32.9l-17.6 10c-1 .6-1.8.5-2.4 0l-.2.1.1.1c.6.5 1.5.6 2.4 0L48 32.9z"/><path class="st7" d="M27.8 42.9c-.4-.4-.5-1-.5-1.7v.1c0 .7.2 1.3.6 1.7v-.1h-.1zM54 29.5l-6 3.4.1.1 6-3.4c.9-.5 1.2-1.1 1.2-1.7-.1.7-.5 1.1-1.3 1.6z"/><path class="st8" d="M30.3 12.9L54 26.4c.7.5 1.2 1 1.2 1.6 0-.6-.4-1.2-1.2-1.7L30.3 12.8c-1.7-1-3-.1-3 1.8v.1c0-1.9 1.3-2.8 3-1.8z"/></svg>