<svg id="Capa_1" xmlns="http://www.w3.org/2000/svg" width="195.1" height="57" viewBox="0 0 195.1 57"><style>.st0{fill:#fff}</style><g id="g3" transform="translate(-11.381 -7.497)"><g id="g5" transform="translate(0 .463)"><g id="g7"><g id="g9"><path id="path11" class="st0" d="M63.2 34.3c0-3.9 3.2-5.9 3.4-6-1.9-2.7-4.7-3.1-5.7-3.1-2.4-.3-4.7 1.4-6 1.4-1.3 0-3.1-1.4-5.2-1.4-2.6 0-5.1 1.6-6.4 3.9-2.8 4.8-.7 11.9 2 15.8 1.3 1.9 2.9 4 4.9 4 2-.1 2.7-1.3 5.1-1.3 2.4 0 3.1 1.3 5.2 1.2 2.1 0 3.5-1.9 4.8-3.8 1.5-2.2 2.2-4.3 2.2-4.4-.2 0-4.3-1.6-4.3-6.3z"/><path id="path13" class="st0" d="M59.3 22.7c1.1-1.3 1.8-3.2 1.6-5-1.5.1-3.5 1.1-4.6 2.4-1 1.2-1.9 3-1.6 4.8 1.7.1 3.4-.9 4.6-2.2z"/></g></g><g id="g15"><path id="path17" class="st0" d="M92 48.6h-2.8l-1.5-4.8h-5.3l-1.5 4.8h-2.7l5.2-16.3h3.2L92 48.6zm-4.8-6.8l-1.4-4.3c-.1-.4-.4-1.5-.8-3.1-.2.7-.4 1.7-.8 3.1l-1.4 4.3h4.4z"/><path id="path19" class="st0" d="M105.5 42.6c0 2-.5 3.6-1.6 4.7-1 1-2.2 1.5-3.6 1.5-1.5 0-2.7-.6-3.3-1.7v6.2h-2.6V40.7c0-1.3 0-2.5-.1-3.9h2.3l.1 1.9c.9-1.4 2.2-2.1 4-2.1 1.4 0 2.5.5 3.5 1.6.8 1.2 1.3 2.6 1.3 4.4zm-2.7.1c0-1.1-.3-2.1-.8-2.8-.6-.8-1.3-1.2-2.3-1.2-.6 0-1.2.2-1.8.6-.5.4-.9 1-1 1.7-.1.3-.1.6-.1.8v2c0 .9.3 1.6.8 2.2.5.6 1.2.9 2 .9 1 0 1.8-.4 2.3-1.1.6-.9.9-1.9.9-3.1z"/><path id="path21" class="st0" d="M119 42.6c0 2-.5 3.6-1.6 4.7-1 1-2.2 1.5-3.6 1.5-1.5 0-2.7-.6-3.3-1.7h-.1v6.2h-2.6V40.7c0-1.3 0-2.5-.1-3.9h2.3l.1 1.9c.9-1.4 2.2-2.1 4-2.1 1.4 0 2.5.5 3.5 1.6.9 1.2 1.4 2.6 1.4 4.4zm-2.7.1c0-1.1-.3-2.1-.8-2.8-.6-.8-1.3-1.2-2.3-1.2-.6 0-1.2.2-1.8.6-.5.4-.9 1-1 1.7-.1.3-.1.6-.1.8v2c0 .9.3 1.6.8 2.2.5.6 1.2.9 2 .9 1 0 1.7-.4 2.3-1.1.7-.9.9-1.9.9-3.1z"/><path id="path23" class="st0" d="M134.1 44.1c0 1.4-.5 2.5-1.4 3.4-1.1 1-2.5 1.4-4.4 1.4-1.8 0-3.2-.3-4.2-1l.6-2.2c1.1.7 2.4 1 3.8 1 1 0 1.7-.2 2.3-.7.5-.4.8-1 .8-1.8 0-.7-.2-1.2-.7-1.7-.4-.5-1.2-.9-2.2-1.3-2.9-1.1-4.3-2.6-4.3-4.7 0-1.3.5-2.4 1.5-3.3 1-.9 2.3-1.3 4-1.3 1.5 0 2.7.3 3.7.8l-.7 2.1c-.9-.5-2-.8-3.1-.8-.9 0-1.6.2-2.2.7-.4.4-.7.9-.7 1.5s.2 1.2.7 1.6c.4.4 1.2.8 2.4 1.3 1.4.6 2.4 1.2 3.1 2 .7.9 1 1.8 1 3z"/><path id="path25" class="st0" d="M142.7 38.8h-2.9v5.7c0 1.5.5 2.2 1.5 2.2.5 0 .9 0 1.2-.1l.1 2c-.5.2-1.2.3-2 .3-1 0-1.8-.3-2.4-.9-.6-.6-.9-1.7-.9-3.2v-5.9h-1.7v-2h1.7v-2.2l2.6-.8v2.9h2.9l-.1 2z"/><path id="path27" class="st0" d="M155.7 42.7c0 1.8-.5 3.3-1.6 4.5-1.1 1.2-2.5 1.8-4.3 1.8-1.7 0-3.1-.6-4.1-1.7-1-1.1-1.5-2.6-1.5-4.3 0-1.8.5-3.3 1.6-4.5 1.1-1.2 2.5-1.7 4.3-1.7 1.7 0 3.1.6 4.2 1.7.9 1 1.4 2.4 1.4 4.2zm-2.7 0c0-1.1-.2-2-.7-2.8-.5-.9-1.3-1.4-2.3-1.4-1 0-1.8.5-2.4 1.4-.5.8-.7 1.7-.7 2.8 0 1.1.2 2 .7 2.8.6.9 1.4 1.4 2.4 1.4s1.8-.5 2.3-1.4c.5-.7.7-1.7.7-2.8z"/><path id="path29" class="st0" d="M164.2 39.2c-.3 0-.5-.1-.8-.1-.9 0-1.6.3-2.1 1-.4.6-.7 1.4-.7 2.3v6.2H158v-8.1c0-1.4 0-2.6-.1-3.7h2.3l.1 2.2h.1c.3-.8.7-1.4 1.3-1.9.6-.4 1.2-.6 1.9-.6h.7v2.7z"/><path id="path31" class="st0" d="M175.9 42.2c0 .5 0 .9-.1 1.2H168c0 1.2.4 2 1.1 2.7.7.5 1.5.8 2.6.8 1.2 0 2.2-.2 3.2-.6l.4 1.8c-1.1.5-2.4.7-3.9.7-1.8 0-3.3-.5-4.3-1.6s-1.6-2.5-1.6-4.3c0-1.8.5-3.2 1.5-4.4 1-1.3 2.4-1.9 4.1-1.9 1.7 0 3 .6 3.8 1.9.7 1 1 2.2 1 3.7zm-2.5-.7c0-.8-.2-1.4-.5-2-.5-.7-1.1-1.1-2.1-1.1-.9 0-1.5.4-2.1 1.1-.4.6-.7 1.2-.8 2h5.5z"/></g><g id="g33"><g id="g35"><path id="path37" class="st0" d="M86.4 22.3c0 1.4-.4 2.5-1.3 3.3-.8.7-1.9 1-3.4 1-.7 0-1.4 0-1.9-.1v-7.9c.7-.1 1.4-.2 2.2-.2 1.4 0 2.5.3 3.2.9.8.7 1.2 1.7 1.2 3zm-1.4 0c0-.9-.2-1.7-.7-2.2-.5-.5-1.2-.7-2.2-.7-.4 0-.7 0-1 .1v6h.9c1 0 1.7-.3 2.3-.8.4-.5.7-1.3.7-2.4z"/><path id="path39" class="st0" d="M93.5 23.6c0 .9-.3 1.6-.8 2.2-.5.6-1.2.9-2.1.9-.8 0-1.5-.3-2-.8-.5-.6-.8-1.3-.8-2.1 0-.9.3-1.6.8-2.2.5-.6 1.2-.9 2.1-.9.8 0 1.5.3 2 .8.6.5.8 1.2.8 2.1zm-1.3 0c0-.5-.1-1-.3-1.4-.3-.5-.7-.7-1.2-.7s-.9.2-1.2.7c-.2.4-.3.8-.3 1.4 0 .5.1 1 .3 1.4.3.5.7.7 1.2.7s.9-.2 1.2-.7c.2-.4.3-.9.3-1.4z"/><path id="path41" class="st0" d="M103.2 20.7l-1.8 5.8h-1.2l-.8-2.5c-.2-.6-.3-1.2-.5-1.9-.1.6-.3 1.3-.5 1.9l-.8 2.5h-1.2l-1.7-5.8H96l.7 2.7c.2.6.3 1.3.4 1.9.1-.5.3-1.1.5-1.8l.8-2.8h1l.8 2.7c.2.7.3 1.3.5 1.9.1-.6.2-1.2.4-1.9l.7-2.7h1.4z"/><path id="path43" class="st0" d="M109.8 26.5h-1.3v-3.3c0-1-.4-1.5-1.2-1.5-.4 0-.7.1-.9.4-.2.3-.4.6-.4 1v3.4h-1.3v-5.8h1.1l.1.9c.1-.3.4-.5.7-.7.3-.2.7-.3 1.2-.3s1 .2 1.3.5c.4.4.7 1.1.7 1.9v3.5z"/><path id="path45" class="st0" d="M113.3 26.5H112v-8.4h1.3v8.4z"/><path id="path47" class="st0" d="M120.9 23.6c0 .9-.3 1.6-.8 2.2-.5.6-1.2.9-2.1.9-.8 0-1.5-.3-2-.8-.5-.6-.8-1.3-.8-2.1 0-.9.3-1.6.8-2.2.5-.6 1.2-.9 2.1-.9.8 0 1.5.3 2 .8.6.5.8 1.2.8 2.1zm-1.3 0c0-.5-.1-1-.3-1.4-.3-.5-.7-.7-1.1-.7-.5 0-.9.2-1.2.7-.2.4-.3.8-.3 1.4 0 .5.1 1 .3 1.4.3.5.7.7 1.2.7s.9-.2 1.2-.7c.1-.4.2-.9.2-1.4z"/><path id="path49" class="st0" d="M127.1 26.5H126l-.1-.7c-.4.5-1 .8-1.7.8-.5 0-1-.2-1.3-.5-.3-.3-.5-.7-.5-1.2 0-.7.3-1.2.9-1.6.6-.4 1.4-.6 2.5-.5v-.1c0-.8-.4-1.1-1.2-1.1-.6 0-1.1.1-1.5.4l-.3-.8c.5-.3 1.2-.5 2-.5 1.5 0 2.3.8 2.3 2.4v2.1c-.1.5 0 1 0 1.3zm-1.3-2v-.9c-1.4 0-2.1.4-2.1 1.2 0 .3.1.5.2.7s.4.2.6.2c.3 0 .5-.1.8-.3.2-.2.4-.4.4-.7.1 0 .1-.1.1-.2z"/><path id="path51" class="st0" d="M134.4 26.5h-1.1l-.1-.9c-.4.7-1 1.1-1.9 1.1-.7 0-1.3-.3-1.7-.8-.5-.5-.7-1.3-.7-2.1 0-.9.2-1.7.7-2.3.5-.5 1.1-.8 1.8-.8.8 0 1.3.3 1.6.8v-3.3h1.3v6.9c.1.4.1.9.1 1.4zm-1.3-2.4v-1.4c-.1-.3-.2-.6-.5-.8-.2-.2-.5-.3-.9-.3-.5 0-.9.2-1.1.6-.3.4-.4.9-.4 1.5s.1 1 .4 1.4c.3.4.7.6 1.1.6.4 0 .8-.2 1-.5.3-.4.4-.7.4-1.1z"/><path id="path53" class="st0" d="M145.4 23.6c0 .9-.3 1.6-.8 2.2-.5.6-1.2.9-2.1.9-.8 0-1.5-.3-2-.8-.5-.6-.8-1.3-.8-2.1 0-.9.3-1.6.8-2.2.5-.6 1.2-.9 2.1-.9.8 0 1.5.3 2 .8s.8 1.2.8 2.1zm-1.3 0c0-.5-.1-1-.3-1.4-.3-.5-.7-.7-1.2-.7s-.9.2-1.2.7c-.2.4-.3.8-.3 1.4 0 .5.1 1 .3 1.4.3.5.7.7 1.2.7s.9-.2 1.2-.7c.1-.4.3-.9.3-1.4z"/><path id="path55" class="st0" d="M152.3 26.5H151v-3.3c0-1-.4-1.5-1.2-1.5-.4 0-.7.1-.9.4-.2.3-.4.6-.4 1v3.4h-1.3v-5.8h1.1l.1.9c.2-.3.4-.5.7-.7.3-.2.7-.3 1.2-.3s1 .2 1.3.5c.4.4.7 1.1.7 1.9v3.5z"/><path id="path57" class="st0" d="M160.9 21.7h-1.4v2.8c0 .7.2 1.1.7 1.1.2 0 .4 0 .6-.1v1c-.3.1-.6.1-1 .1-.5 0-.9-.2-1.2-.5-.3-.3-.4-.8-.4-1.6v-2.9h-.8v-1h.8v-1.1l1.3-.4v1.4h1.4v1.2z"/><path id="path59" class="st0" d="M167.7 26.5h-1.3v-3.3c0-1-.4-1.6-1.2-1.6-.6 0-1 .3-1.2.9 0 .1-.1.3-.1.5v3.5h-1.3v-8.4h1.3v3.5c.4-.6 1-.9 1.7-.9.5 0 1 .2 1.3.5.4.4.7 1.1.7 1.9l.1 3.4z"/><path id="path61" class="st0" d="M174.7 23.3v.6h-3.9c0 .6.2 1 .6 1.3.3.3.7.4 1.3.4.6 0 1.1-.1 1.6-.3l.2.9c-.5.2-1.2.4-1.9.4-.9 0-1.6-.3-2.1-.8s-.8-1.2-.8-2.1c0-.9.2-1.6.7-2.2.5-.6 1.2-.9 2-.9s1.5.3 1.9.9c.3.5.4 1.1.4 1.8zm-1.2-.3c0-.4-.1-.7-.2-1-.2-.4-.6-.5-1-.5s-.8.2-1 .5c-.2.3-.3.6-.4 1h2.6z"/></g></g></g></g></svg>